<svg width="160" height="172" viewBox="0 0 160 172" fill="none" xmlns="http://www.w3.org/2000/svg">
<path fill-rule="evenodd" clip-rule="evenodd" d="M104.327 40.9597C87.3619 17.4434 82.2666 -0.271838 50.162 0.00315812C11.8733 0.331233 16.7076 17.3581 15.6221 45.9817C14.8805 65.5552 25.7387 100.216 9.59486 108.425C-1.68146 114.158 -2.74343 117.017 4.96471 135.29C15.4912 160.246 63.371 173.163 89.0521 171.011C126.19 167.9 175.357 153.346 153.797 120.028C144.317 105.378 174.266 84.871 122.377 87.6043C103.822 88.5814 110.734 59.4751 104.327 40.9595V40.9597Z" fill="#B8DFED"/>
<path fill-rule="evenodd" clip-rule="evenodd" d="M141.739 152.011L132.582 49.9891C132.332 47.203 129.998 45.0688 127.202 45.0688H108.317H50.7479H31.8504C29.0547 45.0688 26.7205 47.203 26.4707 49.9891L17.2769 152.412C17.1417 153.924 17.6472 155.422 18.6708 156.541C19.6939 157.661 21.1409 158.299 22.6573 158.299H136.396C136.4 158.299 136.406 158.299 136.41 158.299C139.395 158.299 141.812 155.879 141.812 152.895C141.811 152.595 141.787 152.299 141.739 152.011Z" fill="white" stroke="#999999" stroke-width="3" stroke-miterlimit="22.9256" stroke-linecap="round" stroke-linejoin="round"/>
<path fill-rule="evenodd" clip-rule="evenodd" d="M108.318 45.0692V36.5486C108.318 20.6689 95.4051 7.75 79.5324 7.75C63.6601 7.75 50.7487 20.6689 50.7487 36.5486V45.0692H108.318Z" stroke="#999999" stroke-width="3" stroke-miterlimit="22.9256" stroke-linecap="round" stroke-linejoin="round"/>
<path d="M55.975 111.491C57.9441 111.491 59.5404 109.894 59.5404 107.924C59.5404 105.954 57.9441 104.357 55.975 104.357C54.0059 104.357 52.4097 105.954 52.4097 107.924C52.4097 109.894 54.0059 111.491 55.975 111.491Z" fill="#FFDDE9"/>
<path d="M61.0685 100.111C64.1632 100.111 66.6719 97.6017 66.6719 94.5059C66.6719 91.4101 64.1632 88.9004 61.0685 88.9004C57.9739 88.9004 55.4652 91.4101 55.4652 94.5059C55.4652 97.6017 57.9739 100.111 61.0685 100.111Z" fill="black"/>
<path d="M97.9979 100.111C101.093 100.111 103.601 97.6017 103.601 94.5059C103.601 91.4101 101.093 88.9004 97.9979 88.9004C94.9032 88.9004 92.3945 91.4101 92.3945 94.5059C92.3945 97.6017 94.9032 100.111 97.9979 100.111Z" fill="black"/>
<path d="M103.091 111.491C105.06 111.491 106.657 109.894 106.657 107.924C106.657 105.954 105.06 104.357 103.091 104.357C101.122 104.357 99.5259 105.954 99.5259 107.924C99.5259 109.894 101.122 111.491 103.091 111.491Z" fill="#FFDDE9"/>
<path d="M70.196 105.716H88.871" stroke="#2B2A29" stroke-width="2" stroke-miterlimit="22.9256" stroke-linecap="round" stroke-linejoin="round"/>
</svg>
