<svg width="399" height="118" viewBox="0 0 399 118" xmlns="http://www.w3.org/2000/svg">
<g clip-path="url(#clip0_202_2)">
<path d="M26.3267 104.113C21.7102 104.113 17.7448 103.485 14.4304 102.231C11.116 100.999 8.45265 99.3423 6.44034 97.2589C4.42803 95.1756 3.03125 92.8674 2.25 90.3342L13.8267 87.5288C14.3475 88.5942 15.1051 89.6477 16.0994 90.6893C17.0938 91.7547 18.4313 92.6306 20.1122 93.3172C21.8168 94.0274 23.9593 94.3825 26.5398 94.3825C30.1856 94.3825 33.2041 93.4947 35.5952 91.7192C37.9863 89.9673 39.1818 87.079 39.1818 83.0544V72.7206H38.5426C37.8797 74.0463 36.9091 75.4076 35.6307 76.8044C34.3759 78.2012 32.7069 79.3731 30.6236 80.32C28.5639 81.267 25.9716 81.7405 22.8466 81.7405C18.6562 81.7405 14.8565 80.758 11.4474 78.793C8.06203 76.8044 5.36316 73.8451 3.35085 69.9152C1.36222 65.9616 0.367898 61.0137 0.367898 55.0714C0.367898 49.0819 1.36222 44.0274 3.35085 39.9081C5.36316 35.7651 8.07386 32.6283 11.483 30.4976C14.892 28.3432 18.6918 27.266 22.8821 27.266C26.0781 27.266 28.706 27.8106 30.7656 28.8996C32.849 29.9649 34.5062 31.2552 35.7372 32.7703C36.9683 34.2618 37.9034 35.6704 38.5426 36.9962H39.2528V27.9763H51.9304V83.4095C51.9304 88.0733 50.8177 91.9322 48.5923 94.9862C46.367 98.0402 43.3248 100.325 39.4659 101.84C35.607 103.355 31.2273 104.113 26.3267 104.113ZM26.4332 71.6553C29.1558 71.6553 31.4759 70.9924 33.3935 69.6666C35.3111 68.3409 36.767 66.4351 37.7614 63.9493C38.7557 61.4635 39.2528 58.4805 39.2528 55.0004C39.2528 51.5677 38.7557 48.561 37.7614 45.9805C36.7907 43.4 35.3466 41.3996 33.429 39.9791C31.535 38.535 29.2031 37.8129 26.4332 37.8129C23.5687 37.8129 21.1776 38.5587 19.2599 40.0501C17.3423 41.5416 15.8982 43.5894 14.9276 46.1936C13.9569 48.7741 13.4716 51.7097 13.4716 55.0004C13.4716 58.3385 13.9569 61.2623 14.9276 63.7717C15.9219 66.2575 17.3778 68.1988 19.2955 69.5956C21.2367 70.9687 23.616 71.6553 26.4332 71.6553ZM81.8011 83.6226C78.3447 83.6226 75.2315 83.0071 72.4616 81.776C69.7154 80.5213 67.5374 78.6747 65.9276 76.2362C64.3414 73.7978 63.5483 70.7911 63.5483 67.2163C63.5483 64.1387 64.1165 61.5937 65.2528 59.5814C66.3892 57.5691 67.9399 55.9592 69.9048 54.7518C71.8698 53.5445 74.0833 52.633 76.5455 52.0175C79.0313 51.3783 81.5999 50.9166 84.2514 50.6325C87.4474 50.3011 90.0398 50.0052 92.0284 49.7447C94.017 49.4606 95.4612 49.0345 96.3608 48.4663C97.2841 47.8745 97.7457 46.963 97.7457 45.732V45.5189C97.7457 42.8437 96.9527 40.7722 95.3665 39.3044C93.7803 37.8366 91.4957 37.1027 88.5128 37.1027C85.3641 37.1027 82.8665 37.7892 81.0199 39.1624C79.197 40.5355 77.9659 42.1571 77.3267 44.0274L65.3239 42.3229C66.2708 39.0085 67.8333 36.2386 70.0114 34.0132C72.1894 31.7641 74.8527 30.0833 78.0014 28.9706C81.1501 27.8342 84.6302 27.266 88.4418 27.266C91.0696 27.266 93.6856 27.5738 96.2898 28.1893C98.8939 28.8049 101.273 29.8229 103.428 31.2433C105.582 32.6401 107.31 34.5459 108.612 36.9606C109.938 39.3754 110.601 42.3939 110.601 46.016V82.5217H98.2429V75.0288H97.8168C97.0355 76.544 95.9347 77.9644 94.5142 79.2902C93.1174 80.5923 91.3537 81.6458 89.223 82.4507C87.116 83.232 84.642 83.6226 81.8011 83.6226ZM85.1392 74.1766C87.7197 74.1766 89.9569 73.6676 91.8509 72.6496C93.7448 71.6079 95.2008 70.2348 96.2188 68.5303C97.2604 66.8257 97.7812 64.9673 97.7812 62.955V56.5274C97.3788 56.8588 96.6922 57.1666 95.7216 57.4507C94.7746 57.7348 93.7093 57.9834 92.5256 58.1964C91.3419 58.4095 90.17 58.5989 89.0099 58.7646C87.8499 58.9303 86.8438 59.0724 85.9915 59.1908C84.0739 59.4512 82.3575 59.8773 80.8423 60.4692C79.3272 61.061 78.1316 61.8896 77.2557 62.955C76.3797 63.9966 75.9418 65.3461 75.9418 67.0033C75.9418 69.3707 76.8059 71.1581 78.5341 72.3655C80.2623 73.5729 82.464 74.1766 85.1392 74.1766ZM144.768 83.4805C140.483 83.4805 136.648 82.3797 133.263 80.178C129.877 77.9763 127.202 74.7803 125.237 70.5899C123.272 66.3996 122.29 61.3096 122.29 55.32C122.29 49.2594 123.284 44.1458 125.273 39.9791C127.285 35.7888 129.996 32.6283 133.405 30.4976C136.814 28.3432 140.614 27.266 144.804 27.266C148 27.266 150.628 27.8106 152.688 28.8996C154.747 29.9649 156.381 31.2552 157.588 32.7703C158.795 34.2618 159.731 35.6704 160.393 36.9962H160.926V9.79445H173.817V82.5217H161.175V73.928H160.393C159.731 75.2537 158.772 76.6624 157.517 78.1538C156.262 79.6216 154.605 80.8764 152.545 81.918C150.486 82.9597 147.893 83.4805 144.768 83.4805ZM148.355 72.9337C151.078 72.9337 153.398 72.1998 155.315 70.732C157.233 69.2405 158.689 67.169 159.683 64.5175C160.678 61.866 161.175 58.7765 161.175 55.249C161.175 51.7215 160.678 48.6557 159.683 46.0516C158.713 43.4474 157.268 41.4232 155.351 39.9791C153.457 38.535 151.125 37.8129 148.355 37.8129C145.491 37.8129 143.099 38.5587 141.182 40.0501C139.264 41.5416 137.82 43.6013 136.849 46.2291C135.879 48.857 135.393 51.8636 135.393 55.249C135.393 58.6581 135.879 61.7002 136.849 64.3754C137.844 67.0269 139.3 69.1221 141.217 70.6609C143.159 72.1761 145.538 72.9337 148.355 72.9337ZM276.163 83.5871C270.694 83.5871 265.971 82.4507 261.994 80.178C258.04 77.8816 254.998 74.6382 252.868 70.4479C250.737 66.2338 249.672 61.2741 249.672 55.5686C249.672 49.9578 250.737 45.0336 252.868 40.7959C255.022 36.5345 258.029 33.2201 261.887 30.8527C265.746 28.4616 270.28 27.266 275.488 27.266C278.85 27.266 282.022 27.8106 285.005 28.8996C288.012 29.9649 290.663 31.6221 292.96 33.8712C295.28 36.1202 297.103 38.9848 298.429 42.4649C299.754 45.9213 300.417 50.0407 300.417 54.8229V58.7646H255.708V50.0999H288.095C288.071 47.6377 287.538 45.4479 286.497 43.5303C285.455 41.589 283.999 40.062 282.129 38.9493C280.282 37.8366 278.128 37.2803 275.666 37.2803C273.038 37.2803 270.73 37.9195 268.741 39.1979C266.752 40.4526 265.202 42.1098 264.089 44.1695C263 46.2054 262.444 48.4427 262.42 50.8811V58.445C262.42 61.6174 263 64.3399 264.16 66.6126C265.32 68.8617 266.942 70.5899 269.025 71.7973C271.109 72.981 273.547 73.5729 276.341 73.5729C278.211 73.5729 279.904 73.3124 281.419 72.7916C282.934 72.2471 284.248 71.454 285.36 70.4124C286.473 69.3707 287.314 68.0804 287.882 66.5416L299.885 67.891C299.127 71.0634 297.683 73.8333 295.552 76.2007C293.445 78.5445 290.746 80.3674 287.456 81.6695C284.165 82.9479 280.401 83.5871 276.163 83.5871ZM339.53 27.9763V37.9195H308.173V27.9763H339.53ZM315.915 14.9081H328.77V66.1155C328.77 67.8437 329.03 69.1695 329.551 70.0928C330.096 70.9924 330.806 71.6079 331.682 71.9393C332.558 72.2708 333.528 72.4365 334.594 72.4365C335.399 72.4365 336.133 72.3773 336.795 72.2589C337.482 72.1406 338.003 72.034 338.358 71.9393L340.524 81.9891C339.838 82.2258 338.855 82.4862 337.577 82.7703C336.322 83.0544 334.783 83.2201 332.96 83.2675C329.741 83.3622 326.84 82.8768 324.26 81.8115C321.679 80.7225 319.632 79.0416 318.116 76.7689C316.625 74.4962 315.891 71.6553 315.915 68.2462V14.9081ZM393.61 42.3939L381.892 43.6723C381.56 42.4886 380.98 41.3759 380.152 40.3342C379.347 39.2926 378.258 38.4521 376.885 37.8129C375.511 37.1737 373.831 36.8541 371.842 36.8541C369.167 36.8541 366.918 37.4341 365.095 38.5942C363.296 39.7542 362.408 41.2575 362.431 43.1041C362.408 44.6903 362.988 45.9805 364.172 46.9749C365.379 47.9692 367.368 48.7859 370.137 49.4251L379.441 51.4138C384.602 52.5265 388.438 54.2902 390.947 56.705C393.48 59.1197 394.759 62.2803 394.782 66.1865C394.759 69.6193 393.752 72.6496 391.764 75.2774C389.799 77.8816 387.065 79.9176 383.561 81.3854C380.057 82.8532 376.032 83.5871 371.487 83.5871C364.811 83.5871 359.437 82.1903 355.365 79.3967C351.293 76.5795 348.866 72.6614 348.085 67.6425L360.62 66.4351C361.189 68.8972 362.396 70.7556 364.243 72.0104C366.089 73.2651 368.492 73.8925 371.451 73.8925C374.505 73.8925 376.956 73.2651 378.802 72.0104C380.672 70.7556 381.608 69.205 381.608 67.3584C381.608 65.7959 381.004 64.5056 379.797 63.4876C378.613 62.4696 376.766 61.6884 374.257 61.1439L364.953 59.1908C359.721 58.1017 355.85 56.267 353.341 53.6865C350.831 51.0823 349.588 47.7916 349.612 43.8143C349.588 40.4526 350.5 37.5407 352.346 35.0785C354.217 32.5928 356.809 30.6751 360.123 29.3257C363.461 27.9526 367.308 27.266 371.664 27.266C378.056 27.266 383.087 28.6273 386.757 31.3499C390.45 34.0724 392.734 37.7537 393.61 42.3939Z" fill="#0055d6"/>
<ellipse cx="236.5" cy="17" rx="14.5" ry="15" fill="#929aab"/>
<path d="M194.545 114.68C190.154 113.254 186.577 111.432 183.812 109.214C181.041 107.019 179.02 104.62 177.75 102.017C176.48 99.4138 175.864 96.7869 175.904 94.1363L187.781 95.0456C187.947 96.2198 188.342 97.4558 188.966 98.7538C189.583 100.074 190.584 101.321 191.97 102.493C193.372 103.695 195.3 104.695 197.754 105.492C201.222 106.619 204.367 106.707 207.189 105.758C210.005 104.83 212.034 102.453 213.278 98.6253L216.471 88.7973L215.863 88.5998C214.823 89.6558 213.48 90.6505 211.832 91.5839C210.207 92.5246 208.258 93.1233 205.984 93.3802C203.732 93.6443 201.12 93.2935 198.148 92.3279C194.163 91.033 190.853 88.9244 188.218 86.0022C185.613 83.0647 183.96 79.4163 183.261 75.0568C182.591 70.6822 183.175 65.6692 185.011 60.0178C186.862 54.3214 189.369 49.8216 192.534 46.5184C195.728 43.2 199.275 41.0544 203.176 40.0814C207.084 39.086 211.03 39.2357 215.016 40.5306C218.055 41.5182 220.386 42.8481 222.009 44.5203C223.661 46.1773 224.838 47.9165 225.541 49.7379C226.251 51.5368 226.705 53.1654 226.903 54.6238L227.578 54.8433L230.366 46.2649L242.423 50.1825L225.293 102.903C223.852 107.338 221.601 110.664 218.541 112.881C215.481 115.098 211.881 116.331 207.743 116.579C203.605 116.828 199.205 116.195 194.545 114.68ZM204.676 83.8446C207.265 84.6859 209.677 84.7724 211.91 84.1041C214.143 83.4358 216.117 82.0732 217.831 80.0164C219.545 77.9595 220.939 75.2762 222.015 71.9664C223.076 68.7016 223.532 65.6885 223.384 62.9271C223.258 60.1729 222.503 57.8241 221.118 55.8806C219.763 53.9219 217.768 52.5146 215.134 51.6586C212.409 50.7734 209.905 50.7438 207.62 51.5697C205.336 52.3956 203.329 53.8969 201.601 56.0737C199.881 58.2279 198.512 60.8699 197.495 63.9995C196.464 67.1742 196.022 70.1049 196.17 72.7915C196.347 75.4628 197.132 77.759 198.524 79.68C199.946 81.5858 201.997 82.974 204.676 83.8446Z" fill="#0055d6"/>
</g>
<defs>
<clipPath id="clip0_202_2">
<rect width="399" height="118" fill="white"/>
</clipPath>
</defs>
</svg>
