<svg width="222" height="148" viewBox="0 0 222 148" fill="none" xmlns="http://www.w3.org/2000/svg">
<path fill-rule="evenodd" clip-rule="evenodd" d="M76.2038 140.395C46.3106 139.42 28.2189 145.262 9.95647 117.627C-11.8235 84.6685 5.52861 78.9986 29.3914 61.5848C76.9812 26.8562 -16.4548 23.7451 99.656 1.02706C127.071 -4.33695 165.709 29.2021 178.664 52.4203C197.4 85.9963 197.607 104.515 219.236 115.84C235.181 124.188 154.067 174.962 126.509 128.979C116.655 112.536 95.7359 135.215 76.2037 140.396L76.2038 140.395Z" fill="url(#paint0_linear_338_327)"/>
<path fill-rule="evenodd" clip-rule="evenodd" d="M112.87 8.80518C112.834 8.84094 112.763 8.84094 112.656 8.84094C76.529 8.84094 47.1492 38.2204 47.1492 74.3475C47.1492 89.0911 52.1828 103.406 61.393 114.937L51.8613 137.07C51.0761 138.891 51.9326 140.997 53.7177 141.746C54.3603 142.032 55.0742 142.103 55.7524 141.996L90.7014 135.856C97.6982 138.39 105.052 139.676 112.477 139.64C148.604 139.64 177.984 110.26 177.984 74.1334C178.055 38.1135 148.89 8.84102 112.87 8.80518H112.87Z" fill="white" stroke="#999999" stroke-width="3" stroke-miterlimit="22.9256" stroke-linecap="round" stroke-linejoin="round"/>
<path d="M88.2614 87.0724C90.293 87.0724 91.9398 85.4255 91.9398 83.394C91.9398 81.3625 90.293 79.7156 88.2614 79.7156C86.2299 79.7156 84.583 81.3625 84.583 83.394C84.583 85.4255 86.2299 87.0724 88.2614 87.0724Z" fill="#FFDDE9"/>
<path d="M93.5167 75.3375C96.7096 75.3375 99.2979 72.7491 99.2979 69.5563C99.2979 66.3635 96.7096 63.7751 93.5167 63.7751C90.3239 63.7751 87.7356 66.3635 87.7356 69.5563C87.7356 72.7491 90.3239 75.3375 93.5167 75.3375Z" fill="black"/>
<path d="M131.618 75.3375C134.811 75.3375 137.399 72.7491 137.399 69.5563C137.399 66.3635 134.811 63.7751 131.618 63.7751C128.425 63.7751 125.837 66.3635 125.837 69.5563C125.837 72.7491 128.425 75.3375 131.618 75.3375Z" fill="black"/>
<path d="M136.873 87.0724C138.904 87.0724 140.551 85.4255 140.551 83.394C140.551 81.3625 138.904 79.7156 136.873 79.7156C134.841 79.7156 133.194 81.3625 133.194 83.394C133.194 85.4255 134.841 87.0724 136.873 87.0724Z" fill="#FFDDE9"/>
<path d="M102.933 81.1179H122.2" stroke="#2B2A29" stroke-width="2" stroke-miterlimit="22.9256" stroke-linecap="round" stroke-linejoin="round"/>
<defs>
<linearGradient id="paint0_linear_338_327" x1="110.647" y1="0.455078" x2="110.647" y2="148" gradientUnits="userSpaceOnUse">
<stop stop-color="#B3DDED"/>
<stop offset="1" stop-color="#3DB4FE"/>
</linearGradient>
</defs>
</svg>
